<svg width="29" height="25" viewBox="0 0 29 25" fill="none" xmlns="http://www.w3.org/2000/svg">
<path fill-rule="evenodd" clip-rule="evenodd" d="M3.94929 0.605663C3.73358 0.658669 3.32654 0.816409 3.04476 0.956338C2.61218 1.17108 2.45742 1.28616 2.05043 1.69598C1.50384 2.24642 1.2821 2.59064 1.04256 3.26058C0.884554 3.7025 0.875488 3.76958 0.875488 4.50101C0.875488 5.23244 0.884554 5.29952 1.04256 5.74144C1.28152 6.40973 1.50298 6.75379 2.05059 7.30722C2.47689 7.73804 2.59719 7.82555 3.09046 8.06323C3.39725 8.2111 3.82098 8.36996 4.03205 8.4163C4.57262 8.5349 5.32149 8.52509 5.83945 8.39263C6.93216 8.11319 7.66028 7.57801 8.34345 6.55211C8.67797 6.04977 8.80334 5.90798 9.07104 5.72923C9.62196 5.36133 9.80945 5.32757 11.3006 5.32757C12.7918 5.32757 12.9793 5.36133 13.5302 5.72923C13.7979 5.90798 13.9233 6.04977 14.2578 6.55211C14.79 7.35132 15.2704 7.78428 16.0078 8.1293C17.982 9.05308 20.3684 8.19948 21.3062 6.23413C21.8326 5.13096 21.8326 3.87106 21.3062 2.7679C20.3684 0.802544 17.982 -0.0510545 16.0078 0.872722C15.2714 1.21732 14.79 1.65076 14.2603 2.44618C13.8155 3.11415 13.5509 3.34228 12.9804 3.54993C12.6994 3.65216 12.5227 3.66917 11.5298 3.68965C9.52304 3.73097 9.09509 3.56321 8.33956 2.43871C7.65602 1.42145 6.92598 0.88728 5.83945 0.609395C5.30096 0.471653 4.50138 0.470106 3.94929 0.605663ZM18.4997 4.50101V5.30091H17.6998H16.8999V4.50101V3.70111H17.6998H18.4997V4.50101ZM10.3407 8.60966C7.86884 9.24793 6.601 11.9419 7.69425 14.2331C8.632 16.1985 11.0185 17.0521 12.9927 16.1283C13.73 15.7833 14.2104 15.3503 14.7426 14.5511C15.0772 14.0488 15.2025 13.907 15.4702 13.7282C16.0211 13.3603 16.2086 13.3266 17.6998 13.3266C19.191 13.3266 19.3785 13.3603 19.9294 13.7282C20.1971 13.907 20.3225 14.0488 20.657 14.5511C21.3402 15.577 22.0683 16.1122 23.161 16.3916C23.679 16.5241 24.4278 16.5339 24.9684 16.4153C25.1795 16.3689 25.6032 16.2101 25.91 16.0622C26.4032 15.8245 26.5236 15.737 26.9498 15.3062C27.4975 14.7528 27.7189 14.4087 27.9579 13.7404C28.1159 13.2985 28.125 13.2314 28.125 12.5C28.125 11.7686 28.1159 11.7015 27.9579 11.2596C27.7181 10.5889 27.4966 10.2453 26.9471 9.69209C26.5196 9.26169 26.3964 9.17215 25.9072 8.9364C25.6019 8.78932 25.1795 8.63105 24.9684 8.58471C24.4278 8.46611 23.679 8.47592 23.161 8.60839C22.0697 8.8875 21.34 9.42321 20.6595 10.4452C20.2146 11.1131 19.9501 11.3413 19.3796 11.5489C19.0986 11.6511 18.9218 11.6682 17.929 11.6886C15.9222 11.73 15.4943 11.5622 14.7387 10.4377C14.0552 9.42044 13.3252 8.88627 12.2386 8.60839C11.6837 8.46648 10.8933 8.46702 10.3407 8.60966ZM12.1005 12.5V13.2999H11.3006H10.5007V12.5V11.7001H11.3006H12.1005V12.5ZM3.94929 16.6036C3.73358 16.6566 3.32654 16.8144 3.04476 16.9543C2.61218 17.1691 2.45742 17.2841 2.05043 17.694C1.50384 18.2444 1.2821 18.5886 1.04256 19.2586C0.884554 19.7005 0.875488 19.7676 0.875488 20.499C0.875488 21.2304 0.884554 21.2975 1.04256 21.7394C1.28152 22.4077 1.50298 22.7518 2.05059 23.3052C2.47689 23.736 2.59719 23.8235 3.09046 24.0612C3.39725 24.2091 3.82098 24.3679 4.03205 24.4143C4.57262 24.5329 5.32149 24.5231 5.83945 24.3906C6.93216 24.1112 7.66028 23.576 8.34345 22.5501C8.67797 22.0478 8.80334 21.906 9.07104 21.7272C9.62196 21.3593 9.80945 21.3256 11.3006 21.3256C12.7918 21.3256 12.9793 21.3593 13.5302 21.7272C13.7979 21.906 13.9233 22.0478 14.2578 22.5501C14.79 23.3493 15.2704 23.7823 16.0078 24.1273C17.982 25.0511 20.3684 24.1975 21.3062 22.2321C21.8326 21.1289 21.8326 19.869 21.3062 18.7659C20.3684 16.8005 17.982 15.9469 16.0078 16.8707C15.2714 17.2153 14.79 17.6487 14.2603 18.4442C13.8155 19.1121 13.5509 19.3403 12.9804 19.5479C12.6994 19.6501 12.5227 19.6671 11.5298 19.6876C9.52304 19.729 9.09509 19.5612 8.33956 18.4367C7.65602 17.4194 6.92598 16.8853 5.83945 16.6074C5.30096 16.4696 4.50138 16.4681 3.94929 16.6036ZM18.4997 20.499V21.2989H17.6998H16.8999V20.499V19.6991H17.6998H18.4997V20.499Z" fill="white"/>
</svg>
